<svg width="200px" height="200px" viewBox="0 -47.266 200 200" version="1.1" xmlns="http://www.w3.org/2000/svg" xmlns:xlink="http://www.w3.org/1999/xlink" preserveAspectRatio="xMidYMid"><defs><radialGradient id="radialGradient-1" cx="0.8366" cy="-125.811" r="363.0565" gradientTransform="matrix(0.463 0 0 0.463 76.4644 81.9182)" gradientUnits="userSpaceOnUse"><stop offset="0" style="stop-color:#FFFFFF"/><stop offset="0.5" style="stop-color:#4C6B97"/><stop offset="1" style="stop-color:#231F20"/></radialGradient></defs><g><path fill="url(#radialGradient-1)" cx="128" cy="67.3" rx="128" ry="67.3" d="M200 52.578A100 52.578 0 0 1 100 105.156A100 52.578 0 0 1 0 52.578A100 52.578 0 0 1 200 52.578z"/><path fill="#6181B6" cx="128" cy="67.3" rx="123" ry="62.3" d="M196.094 52.578A96.094 48.672 0 0 1 100 101.25A96.094 48.672 0 0 1 3.906 52.578A96.094 48.672 0 0 1 196.094 52.578z"/><g><path fill="#FFFFFF" d="M119.453 68.359c0 0 4.766 -24.531 4.766 -24.531c1.094 -5.547 0.156 -9.688 -2.656 -12.266c-2.734 -2.5 -7.422 -3.75 -14.297 -3.75h-8.281l2.344 -12.188c0.078 -0.469 0 -0.938 -0.313 -1.328c-0.313 -0.391 -0.703 -0.547 -1.172 -0.547h-11.406c-0.781 0 -1.406 0.547 -1.563 1.25l-5.078 26.016c-0.469 -2.969 -1.563 -5.469 -3.438 -7.5c-3.359 -3.828 -8.594 -5.781 -15.703 -5.781H40.703c-0.781 0 -1.406 0.547 -1.563 1.25L28.906 81.797c-0.078 0.469 0 0.938 0.313 1.328c0.313 0.391 0.703 0.547 1.172 0.547h11.484c0.781 0 1.406 -0.547 1.563 -1.25l2.5 -12.734h8.516c4.453 0 8.281 -0.469 11.172 -1.406c3.047 -1.016 5.781 -2.656 8.203 -4.922c1.953 -1.797 3.594 -3.828 4.844 -6.016l-2.031 10.547c-0.078 0.469 0 0.938 0.313 1.328s0.703 0.547 1.172 0.547h11.406c0.781 0 1.406 -0.547 1.563 -1.25l5.625 -28.906h7.813c3.359 0 4.297 0.625 4.609 0.938c0.234 0.234 0.703 1.172 0.156 4.063l-4.531 23.359c-0.078 0.469 0 0.938 0.313 1.328c0.313 0.391 0.703 0.547 1.172 0.547H117.969C118.672 69.609 119.297 69.063 119.453 68.359zM66.641 48.047c-0.703 3.672 -2.031 6.328 -3.984 7.813c-1.953 1.484 -5.156 2.266 -9.375 2.266h-5.078l3.672 -18.906h6.563c4.844 0 6.797 1.016 7.578 1.875C67.031 42.344 67.266 44.766 66.641 48.047z"/><path fill="#FFFFFF" d="M168.203 33.516c-3.359 -3.828 -8.594 -5.781 -15.703 -5.781h-22.109c-0.781 0 -1.406 0.547 -1.563 1.25l-10.234 52.734c-0.078 0.469 0 0.938 0.313 1.328c0.313 0.391 0.703 0.547 1.172 0.547h11.484c0.781 0 1.406 -0.547 1.563 -1.25l2.5 -12.734h8.516c4.453 0 8.281 -0.469 11.172 -1.406c3.047 -1.016 5.781 -2.656 8.203 -4.922c2.031 -1.875 3.75 -3.984 5 -6.25c1.25 -2.266 2.188 -4.766 2.734 -7.5C172.578 42.734 171.563 37.422 168.203 33.516zM156.25 48.047c-0.703 3.672 -2.031 6.328 -3.984 7.813c-1.953 1.484 -5.156 2.266 -9.375 2.266h-5.078l3.672 -18.906h6.563c4.844 0 6.797 1.016 7.578 1.875C156.719 42.344 156.953 44.766 156.25 48.047z"/></g><g><path fill="#000004" d="M58.438 37.656c4.375 0 7.266 0.781 8.75 2.422c1.484 1.641 1.797 4.375 1.016 8.281c-0.781 4.063 -2.344 7.031 -4.609 8.75c-2.266 1.719 -5.703 2.578 -10.313 2.578h-6.953l4.297 -22.031H58.438zM30.469 82.031h11.484l2.734 -13.984h9.844c4.375 0 7.891 -0.469 10.703 -1.406c2.813 -0.938 5.313 -2.422 7.656 -4.609c1.953 -1.797 3.516 -3.75 4.688 -5.859c1.172 -2.109 2.031 -4.453 2.5 -7.031c1.25 -6.25 0.313 -11.094 -2.734 -14.609c-3.047 -3.516 -7.891 -5.234 -14.531 -5.234H40.703L30.469 82.031z"/><path fill="#000004" d="M88.516 15.313h11.406l-2.734 13.984h10.156c6.406 0 10.781 1.094 13.203 3.359c2.422 2.266 3.125 5.859 2.188 10.859L117.969 68.047h-11.563l4.531 -23.359c0.547 -2.656 0.313 -4.453 -0.547 -5.391c-0.859 -0.938 -2.813 -1.484 -5.703 -1.484h-9.141l-5.859 30.234h-11.406L88.516 15.313z"/><path fill="#000004" d="M148.047 37.656c4.375 0 7.266 0.781 8.75 2.422c1.484 1.641 1.797 4.375 1.016 8.281c-0.781 4.063 -2.344 7.031 -4.609 8.75c-2.266 1.719 -5.703 2.578 -10.313 2.578h-6.953l4.297 -22.031H148.047zM120.078 82.031h11.484l2.734 -13.984h9.844c4.375 0 7.891 -0.469 10.703 -1.406c2.813 -0.938 5.313 -2.422 7.656 -4.609c1.953 -1.797 3.516 -3.75 4.688 -5.859c1.172 -2.109 2.031 -4.453 2.5 -7.031c1.25 -6.25 0.313 -11.094 -2.734 -14.609c-3.047 -3.516 -7.891 -5.234 -14.531 -5.234h-22.109L120.078 82.031z"/></g></g></svg>